# xmcd
#
# Track frame offsets:
#	150
#	19055
#	34489
#	47553
#	74991
#	91970
#	105054
#	123653
#	137984
#	164955
#	185994
#
# Disc length: 2568 seconds
# Revision: 1
# Processed by: cddbd v1.5.2PL0 Copyright (c) Steve Scherf et al.
# Submitted via: dBpowerAMP V12.0
#
DISCID=aa0a060b
DTITLE=Adam Gussow - Southbound
DYEAR=2012
DGENRE=Blues Harmonica
TTITLE0=Southbound
TTITLE1=You Don't Have To Go
TTITLE2=Sanford And Son Theme
TTITLE3=Grazing In The Grass
TTITLE4=Old McDonald In Mississippi
TTITLE5=I'm Tore Down
TTITLE6=Why Not
TTITLE7=Green Tomatoes
TTITLE8=Home To Mississippi
TTITLE9=C.C. Rider
TTITLE10=Alley Cat
EXTD=
EXTT0=
EXTT1=
EXTT2=
EXTT3=
EXTT4=
EXTT5=
EXTT6=
EXTT7=
EXTT8=
EXTT9=
EXTT10=
PLAYORDER=
